<svg width="132" height="62" viewBox="0 0 132 62" fill="none" xmlns="http://www.w3.org/2000/svg">
<path fill-rule="evenodd" clip-rule="evenodd" d="M0 62C0 58.5683 0 55.1507 0 51.7147C44.0085 51.7147 87.99 51.7147 132 51.7147C132 55.147 132 58.5647 132 62C87.993 62 44.01 62 0 62ZM103.277 59.4555C103.277 57.4627 103.277 55.5199 103.277 53.5545C103.071 53.5545 102.908 53.5744 102.753 53.5503C102.342 53.4869 102.132 53.6566 101.975 54.0441C101.5 55.2122 100.983 56.3629 100.48 57.5194C100.43 57.6345 100.365 57.7427 100.278 57.909C99.7292 56.6334 99.2165 55.4191 98.6843 54.2129C98.3364 53.4239 98.5731 53.5868 97.6787 53.5463C97.323 53.5305 97.2357 53.6523 97.239 53.9957C97.2551 55.6859 97.2454 57.3768 97.2472 59.067C97.2472 59.1926 97.2651 59.3187 97.2739 59.436C97.5724 59.436 97.826 59.436 98.1279 59.436C98.1279 58.0038 98.1279 56.6091 98.1279 55.2146C98.761 56.5097 99.3089 57.8183 99.8814 59.1161C99.9477 59.2666 100.131 59.4064 100.292 59.4628C100.553 59.5548 100.626 59.3184 100.707 59.1265C101.216 57.9246 101.727 56.7236 102.239 55.5233C102.29 55.4026 102.352 55.2871 102.409 55.1692C102.445 55.1808 102.48 55.1921 102.516 55.2034C102.516 56.62 102.516 58.0376 102.516 59.4555C102.794 59.4555 103.025 59.4555 103.277 59.4555ZM75.0228 55.8764C73.8439 55.2189 72.7935 55.3213 72.1355 56.1079C71.4931 56.8759 71.4903 58.1074 72.1292 58.8766C72.8156 59.7026 73.7769 59.7803 74.9816 59.0911C75.0079 59.2145 75.0337 59.3336 75.0579 59.4479C75.3131 59.4479 75.541 59.4479 75.7938 59.4479C75.7938 57.3588 75.7938 55.2969 75.7938 53.2072C75.5337 53.2072 75.2967 53.2072 75.0228 53.2072C75.0228 54.0956 75.0228 54.9557 75.0228 55.8764ZM31.7528 55.8407C31.7528 54.9453 31.7528 54.0783 31.7528 53.2027C31.4613 53.2027 31.234 53.2027 30.9849 53.2027C30.9849 55.2987 30.9849 57.3701 30.9849 59.4366C31.6722 59.5189 31.6722 59.5189 31.8471 59.1048C32.8211 59.8924 33.9749 59.5703 34.5164 59.0098C35.2113 58.2908 35.3123 57.0877 34.7337 56.2499C34.1179 55.3581 33.0875 55.2028 31.7528 55.8407ZM3.60335 56.9433C4.22098 56.8985 4.78013 56.9082 5.31896 56.8071C6.19783 56.6423 6.63514 56.0372 6.6115 55.1433C6.59029 54.3305 6.10297 53.7511 5.23714 53.642C4.5598 53.557 3.86823 53.5926 3.18483 53.5488C2.84238 53.5265 2.73328 53.6322 2.73691 53.9881C2.7551 55.6914 2.74419 57.3948 2.74631 59.0981C2.74631 59.2105 2.76631 59.3236 2.77782 59.4415C3.06118 59.4415 3.31515 59.4415 3.60335 59.4415C3.60335 58.5927 3.60335 57.7756 3.60335 56.9433ZM124.666 57.7655C124.773 56.4787 124.206 55.6338 123.154 55.4386C122.138 55.2503 121.163 55.8508 120.876 56.8427C120.565 57.9142 121.049 59.0387 121.988 59.4284C122.928 59.8186 124.097 59.4753 124.539 58.6524C124.363 58.5174 124.182 58.3794 123.989 58.2317C123.513 58.7362 122.978 58.9982 122.326 58.7063C121.957 58.5412 121.713 58.2442 121.69 57.7652C122.696 57.7655 123.669 57.7655 124.666 57.7655ZM80.5912 57.7866C80.78 56.6459 80.2235 55.71 79.2662 55.4754C78.1815 55.2107 77.1605 55.7731 76.8393 56.8126C76.5059 57.8914 76.9945 59.0436 77.9503 59.4336C78.8977 59.8202 80.0881 59.4616 80.4857 58.6439C80.3084 58.511 80.126 58.3746 79.9347 58.2314C79.4844 58.7234 78.9756 58.9717 78.3473 58.7383C77.9382 58.5866 77.6988 58.2682 77.626 57.7869C78.6243 57.7866 79.5971 57.7866 80.5912 57.7866ZM49.556 57.7497C50.5812 57.7497 51.5649 57.7497 52.542 57.7497C52.6459 56.4756 52.0795 55.6332 51.027 55.4386C50.0108 55.2506 49.0362 55.8523 48.7495 56.8446C48.4401 57.9164 48.9247 59.0408 49.8633 59.4293C50.8039 59.8189 51.9762 59.4738 52.4129 58.6515C52.2365 58.5171 52.0553 58.3788 51.8813 58.2463C50.7842 59.1322 49.7802 58.9385 49.556 57.7497ZM42.5299 57.771C42.6593 56.5481 42.1132 55.682 41.1207 55.4617C40.0715 55.2293 39.0893 55.7843 38.7665 56.7922C38.4268 57.8521 38.8801 58.9854 39.8111 59.4031C40.7518 59.826 41.9222 59.5055 42.4162 58.6609C42.2408 58.5241 42.061 58.3843 41.8637 58.2301C41.3922 58.7304 40.8585 58.9973 40.206 58.7121C39.8317 58.5485 39.5881 58.2475 39.5584 57.7707C40.5576 57.771 41.5316 57.771 42.5299 57.771ZM25.4174 57.7729C25.5553 56.5591 25.0056 55.6832 24.0134 55.4623C22.9799 55.2326 22.0102 55.7652 21.6732 56.7486C21.3119 57.8018 21.7389 58.9434 22.659 59.3833C23.6003 59.8336 24.794 59.5222 25.3086 58.6622C25.1222 58.5217 24.9328 58.3788 24.7389 58.2329C24.2767 58.7405 23.7615 58.9735 23.1384 58.7304C22.7381 58.5744 22.4911 58.2615 22.4399 57.7729C23.4448 57.7729 24.4192 57.7729 25.4174 57.7729ZM14.9262 56.1222C15.1004 56.287 15.2556 56.4342 15.4202 56.5899C15.9657 56.2167 16.5236 56.0016 17.1185 56.3288C17.2773 56.4156 17.3422 56.677 17.4934 56.9308C17.0773 56.9518 16.7991 56.95 16.5254 56.9847C16.2524 57.0185 15.9742 57.0609 15.715 57.1492C15.0538 57.375 14.734 57.8582 14.7995 58.4763C14.8622 59.0683 15.3217 59.4735 15.9993 59.5557C16.5315 59.62 17.0079 59.4969 17.4243 59.1313C17.5643 59.695 17.9428 59.4083 18.2159 59.4546C18.2159 58.6475 18.2174 57.8737 18.2144 57.0996C18.2138 56.9533 18.2016 56.8056 18.1822 56.6605C18.1201 56.1996 17.9246 55.8197 17.4973 55.5988C16.7397 55.2064 15.5908 55.4169 14.9262 56.1222ZM7.61614 56.0674C7.9495 56.5917 7.93738 56.5594 8.46985 56.3516C8.77018 56.2343 9.12294 56.1899 9.446 56.2103C9.81785 56.234 10.0403 56.4787 10.0188 56.9323C9.78391 56.9457 9.56722 56.9414 9.35599 56.9737C8.98323 57.0301 8.59744 57.0618 8.24619 57.1873C7.64644 57.4018 7.36036 57.9084 7.43066 58.4937C7.49825 59.0546 7.92889 59.4582 8.55895 59.546C9.10142 59.6215 9.60571 59.5396 10.0542 59.1182C10.1779 59.7373 10.5731 59.3994 10.8192 59.4421C10.8192 58.5156 10.8337 57.6227 10.8131 56.7306C10.8028 56.2861 10.614 55.9053 10.2242 55.6567C9.48873 55.1863 8.20952 55.3898 7.61614 56.0674ZM106.973 56.935C106.773 56.9454 106.598 56.9399 106.427 56.9667C106.012 57.0316 105.581 57.059 105.189 57.1964C104.589 57.407 104.312 57.9243 104.392 58.5107C104.465 59.0552 104.882 59.4503 105.49 59.5432C106.047 59.6288 106.564 59.539 107.003 59.1386C107.168 59.7007 107.538 59.4232 107.78 59.4384C107.78 58.5165 107.827 57.6327 107.757 56.7586C107.728 56.4019 107.523 55.9778 107.261 55.7377C106.6 55.1348 105.135 55.3633 104.53 56.1441C104.686 56.2779 104.849 56.4177 105.011 56.5567C106.206 55.9574 106.896 56.0692 106.973 56.935ZM63.5266 56.9369C63.209 56.953 62.9153 56.9488 62.6277 56.9881C62.3407 57.0271 62.0474 57.0773 61.7786 57.18C61.1824 57.4076 60.8882 57.9008 60.9539 58.4842C61.0176 59.0463 61.4464 59.4552 62.074 59.5448C62.6295 59.6246 63.1472 59.5387 63.5754 59.1194C63.7296 59.6889 64.1003 59.415 64.3606 59.4473C64.3606 58.582 64.3815 57.7479 64.3545 56.9152C64.3288 56.1256 63.9988 55.6722 63.3993 55.498C62.5423 55.2494 61.5495 55.5147 61.1173 56.1435C61.2594 56.2904 61.4076 56.4436 61.5434 56.5838C62.7126 55.9419 63.4933 56.0765 63.5266 56.9369ZM114.9 59.5703C116.128 59.574 116.992 58.735 117.004 57.5246C117.016 56.298 116.142 55.4114 114.915 55.4069C113.696 55.402 112.791 56.3014 112.8 57.5084C112.81 58.7106 113.681 59.5667 114.9 59.5703ZM90.1544 57.4947C90.1535 56.2724 89.2644 55.3962 88.0364 55.4072C86.8341 55.4181 85.9516 56.3014 85.9507 57.4944C85.9498 58.7112 86.8411 59.5804 88.08 59.5703C89.3047 59.5603 90.1553 58.7097 90.1544 57.4947ZM108.641 60.7631C108.47 61.3453 108.53 61.4169 109.224 61.4233C109.883 61.4294 110.24 61.0479 110.46 60.4886C111.074 58.9351 111.682 57.3795 112.288 55.823C112.321 55.7374 112.317 55.6369 112.33 55.5431C111.562 55.4395 111.562 55.4392 111.313 56.0985C111.041 56.819 110.77 57.5401 110.467 58.3432C110.138 57.5093 109.847 56.7742 109.556 56.039C109.313 55.4209 109.213 55.3764 108.475 55.5808C108.524 55.7146 108.568 55.8499 108.621 55.9812C109.041 57.0124 109.449 58.0489 109.889 59.0719C110.127 59.6243 109.843 60.0627 109.57 60.4435C109.43 60.6388 109.024 60.6421 108.641 60.7631ZM47.3118 59.4491C47.3118 58.4882 47.3458 57.5648 47.3003 56.6459C47.2682 55.9985 46.8336 55.5927 46.2002 55.4468C45.6171 55.3124 45.1234 55.5266 44.6173 55.8858C44.6667 55.3359 44.3058 55.515 44.0785 55.5086C43.7609 55.4998 43.8654 55.7566 43.8654 55.9281C43.8654 56.4122 43.8794 56.8964 43.8818 57.3808C43.8848 58.0653 43.8827 58.7505 43.8827 59.4396C44.1755 59.4396 44.4131 59.4396 44.6816 59.4396C44.6816 58.7904 44.6588 58.1756 44.691 57.5629C44.7073 57.2492 44.7734 56.9186 44.9016 56.634C45.0749 56.249 45.5604 56.0841 45.9984 56.2026C46.4081 56.3132 46.5175 56.6398 46.5278 57.0167C46.5372 57.3683 46.5336 57.7208 46.5342 58.0729C46.5351 58.5235 46.5345 58.9738 46.5345 59.4494C46.8169 59.4491 47.0439 59.4491 47.3118 59.4491ZM125.222 58.7575C125.738 59.5137 126.563 59.7644 127.47 59.4774C128.071 59.2876 128.39 58.873 128.386 58.2874C128.383 57.7351 128.097 57.3692 127.496 57.1815C127.19 57.0862 126.866 57.042 126.568 56.9277C126.426 56.8732 126.326 56.7087 126.207 56.5938C126.348 56.4622 126.467 56.2666 126.632 56.2124C127.058 56.0732 127.387 56.2962 127.663 56.6438C127.878 56.4884 128.072 56.348 128.261 56.2112C127.886 55.5239 127.182 55.2628 126.393 55.4821C125.76 55.6579 125.408 56.0588 125.402 56.6106C125.395 57.166 125.682 57.4944 126.359 57.6939C126.626 57.7719 126.913 57.7981 127.157 57.9182C127.312 57.994 127.5 58.204 127.494 58.3456C127.487 58.49 127.285 58.6813 127.126 58.7511C126.763 58.9092 126.41 58.8218 126.107 58.5613C126.01 58.4778 125.915 58.3907 125.81 58.2966C125.609 58.4547 125.426 58.5979 125.222 58.7575ZM91.3385 58.2908C91.1297 58.4565 90.9387 58.6082 90.7508 58.7575C91.2151 59.4972 92.0525 59.7626 92.9674 59.4835C93.5732 59.2989 93.8993 58.8885 93.9027 58.3072C93.9063 57.7354 93.6144 57.3658 92.9886 57.1751C92.6959 57.0862 92.3843 57.0499 92.1031 56.935C91.9528 56.8735 91.85 56.6956 91.7261 56.5704C91.8734 56.4455 92.0022 56.2596 92.1719 56.2081C92.5844 56.0832 92.9041 56.2925 93.168 56.6444C93.3802 56.4979 93.5784 56.3605 93.7705 56.2279C93.3932 55.4419 92.3946 55.1811 91.5606 55.6177C91.1342 55.8404 90.9006 56.1831 90.9181 56.6794C90.9357 57.1721 91.2145 57.4648 91.6515 57.6141C91.9685 57.722 92.3119 57.7622 92.6153 57.8972C92.7859 57.973 93.0295 58.2061 93.0068 58.3219C92.9726 58.4967 92.7598 58.7002 92.5774 58.7691C92.0664 58.9607 91.6867 58.6628 91.3385 58.2908ZM55.8853 56.6447C56.0996 56.4912 56.2947 56.351 56.4845 56.2151C56.1111 55.5108 55.3365 55.2418 54.5373 55.5025C53.9409 55.6975 53.6184 56.1039 53.6269 56.6508C53.6351 57.1687 53.916 57.4935 54.5376 57.6833C54.8304 57.7726 55.1431 57.8112 55.4183 57.9362C55.5598 58.0004 55.7268 58.2058 55.722 58.342C55.7171 58.4818 55.5435 58.6731 55.3977 58.7395C55.0422 58.9001 54.6828 58.8468 54.37 58.5921C54.2588 58.5016 54.1539 58.4035 54.0321 58.2963C53.8288 58.4617 53.6403 58.6152 53.4545 58.7664C53.947 59.4984 54.7464 59.7541 55.6486 59.4942C56.2569 59.3193 56.5978 58.9089 56.6108 58.3368C56.6245 57.743 56.3296 57.3655 55.6826 57.1718C55.3892 57.0837 55.0777 57.0459 54.7979 56.929C54.6516 56.8677 54.5558 56.684 54.4373 56.5557C54.5743 56.4375 54.6937 56.2621 54.8516 56.2124C55.2798 56.0783 55.6107 56.2907 55.8853 56.6447ZM60.0272 56.217C60.1057 55.5016 60.1057 55.5016 59.4844 55.5004C59.3171 55.5004 59.1495 55.5004 58.9432 55.5004C58.9432 55.1077 58.9432 54.7893 58.9432 54.4618C58.6653 54.4618 58.428 54.4618 58.1504 54.4618C58.1504 54.8143 58.1504 55.1333 58.1504 55.4684C57.8579 55.4931 57.6045 55.5147 57.3533 55.5361C57.3533 55.7767 57.3533 55.9745 57.3533 56.1874C57.6242 56.206 57.8652 56.2224 58.1634 56.2435C58.1634 56.9725 58.1461 57.6738 58.1676 58.3746C58.1967 59.3263 58.5525 59.6331 59.4884 59.5606C60.1375 59.5103 60.2375 59.3467 59.9945 58.717C59.8269 58.7514 59.659 58.8026 59.4878 58.8175C59.2256 58.8401 58.9956 58.7438 58.9877 58.4522C58.9677 57.7226 58.981 56.9926 58.981 56.2173C59.3435 56.217 59.6732 56.217 60.0272 56.217ZM84.9003 59.4521C84.9003 57.3338 84.9003 55.274 84.9003 53.2167C84.6282 53.2167 84.39 53.2167 84.1566 53.2167C84.1566 55.3149 84.1566 57.3753 84.1566 59.4521C84.4188 59.4521 84.6458 59.4521 84.9003 59.4521ZM27.2533 59.4531C27.2533 57.336 27.2533 55.2762 27.2533 53.2155C26.9815 53.2155 26.7436 53.2155 26.5081 53.2155C26.5081 55.313 26.5081 57.3728 26.5081 59.4531C26.7688 59.4531 26.9961 59.4531 27.2533 59.4531ZM118.795 55.8319C118.695 55.4986 118.598 55.4571 118.223 55.4983C117.906 55.533 118.01 55.7566 118.01 55.9275C118.01 56.4714 118.023 57.0149 118.026 57.5587C118.029 58.1854 118.027 58.8124 118.027 59.4375C118.323 59.4375 118.561 59.4375 118.825 59.4375C118.825 58.7996 118.82 58.1991 118.826 57.5983C118.837 56.5161 119.161 56.1978 120.289 56.2331C120.275 55.9815 120.35 55.653 120.221 55.5059C120.115 55.3852 119.756 55.434 119.528 55.4891C119.282 55.5492 119.058 55.7039 118.795 55.8319ZM12.8296 59.4476C12.8296 59.2044 12.8233 58.9875 12.8308 58.7712C12.8524 58.1707 12.8318 57.5639 12.919 56.9731C13.0012 56.4174 13.376 56.1886 13.9312 56.2234C14.0282 56.2295 14.1249 56.2407 14.3037 56.2566C14.2801 55.9699 14.3461 55.6372 14.2128 55.4974C14.0982 55.3773 13.7443 55.4343 13.5164 55.4925C13.2721 55.5552 13.0512 55.7115 12.8045 55.8343C12.7721 55.7292 12.7396 55.6241 12.709 55.5245C11.9977 55.4669 12.0099 55.4666 12.0214 56.1655C12.0359 57.0615 12.0287 57.9578 12.0308 58.8544C12.0311 59.053 12.0308 59.252 12.0308 59.4473C12.3293 59.4476 12.5572 59.4476 12.8296 59.4476ZM66.7048 59.4485C66.7048 59.1776 66.6975 58.9315 66.7063 58.6853C66.7266 58.1144 66.7084 57.5367 66.7929 56.9756C66.8745 56.4336 67.2321 56.2014 67.7606 56.22C67.8724 56.2237 67.9837 56.2401 68.1779 56.2584C68.1555 55.9696 68.2228 55.6369 68.09 55.4989C67.9743 55.3785 67.6218 55.4343 67.3939 55.4925C67.1493 55.5549 66.9281 55.7109 66.6805 55.8343C66.649 55.7322 66.6166 55.6259 66.5857 55.5257C65.8726 55.466 65.8841 55.4657 65.8968 56.1636C65.9117 56.9713 65.9047 57.7799 65.9065 58.5878C65.9071 58.8751 65.9065 59.163 65.9065 59.4488C66.2029 59.4485 66.4308 59.4485 66.7048 59.4485ZM37.2873 59.4534C37.2873 58.1817 37.2888 56.9667 37.2864 55.7511C37.2858 55.409 37.0209 55.522 36.8378 55.5019C36.6215 55.4782 36.4718 55.522 36.4754 55.7978C36.4848 56.5314 36.4778 57.265 36.4775 57.9989C36.4775 58.4769 36.4775 58.9555 36.4775 59.4537C36.7706 59.4534 36.9982 59.4534 37.2873 59.4534ZM36.8581 54.6608C37.1876 54.6559 37.4079 54.4341 37.4134 54.1282C37.4188 53.8111 37.1742 53.5552 36.8703 53.5606C36.5669 53.5661 36.3223 53.8312 36.3411 54.1438C36.3614 54.4841 36.573 54.6282 36.8581 54.6608Z" fill="black"/>
<path fill-rule="evenodd" clip-rule="evenodd" d="M68.4813 26.8335C70.0545 26.8335 71.5137 26.8311 72.9726 26.8347C73.4829 26.836 74.0769 26.6928 74.4791 26.9066C74.8612 27.1099 75.0255 27.7064 75.3146 28.1088C77.4633 31.0975 79.6141 34.0844 81.7752 37.0643C83.0238 38.7856 84.2924 40.4926 85.5525 42.2057C85.6346 42.3172 85.724 42.4244 85.8716 42.6115C85.8825 42.4263 85.8916 42.3446 85.8916 42.263C85.8744 39.0144 85.8768 35.7658 85.8304 32.5179C85.804 30.6774 85.5668 28.8571 85.077 27.0766C85.0619 27.0218 85.0582 26.9639 85.0431 26.8692C86.8205 26.8692 88.5776 26.8692 90.359 26.8692C90.2187 27.6412 90.0323 28.4095 89.9471 29.1888C89.7829 30.6917 89.5832 32.1995 89.5641 33.7075C89.5207 37.1462 89.5641 40.5867 89.5995 44.026C89.6162 45.6627 89.8635 47.2731 90.3096 48.8506C90.3411 48.9612 90.3626 49.0742 90.3981 49.226C88.9958 49.226 87.6227 49.1964 86.2511 49.2397C85.6474 49.2589 85.3316 49.0974 85.0213 48.5231C84.4312 47.4312 83.719 46.3969 82.9792 45.3973C80.4936 42.0366 77.9736 38.7012 75.4665 35.357C75.4143 35.2872 75.3552 35.2226 75.2646 35.1139C75.2422 35.2171 75.2164 35.279 75.217 35.3408C75.2419 38.3831 75.1998 41.4279 75.3249 44.4663C75.3852 45.9344 75.7589 47.3901 75.9923 48.8512C76.0107 48.9655 76.042 49.0773 76.0711 49.2077C74.2857 49.2077 72.5207 49.2077 70.7366 49.2077C70.8891 48.4418 71.0958 47.7033 71.1733 46.9508C71.3312 45.4186 71.5012 43.8801 71.5209 42.3422C71.57 38.4916 71.5422 34.6398 71.5276 30.7886C71.5267 30.5674 71.4182 30.3057 71.2755 30.1333C70.4718 29.1617 69.6417 28.2118 68.8216 27.2537C68.7289 27.1446 68.6413 27.0313 68.4813 26.8335Z" fill="black"/>
<path fill-rule="evenodd" clip-rule="evenodd" d="M104.284 26.4999C109.529 26.5298 113.743 29.5947 115.082 34.5161C116.406 39.3818 115.152 44.4727 110.642 47.6079C108.439 49.1394 105.956 49.658 103.318 49.5367C100.928 49.4273 98.7125 48.7723 96.7878 47.2984C93.8733 45.0671 92.4813 42.0555 92.3301 38.4139C92.0334 31.2861 97.5163 27.101 102.581 26.6245C103.147 26.5709 103.716 26.5408 104.284 26.4999ZM111.253 38.495C111.248 37.2925 111.008 35.9239 110.472 34.758C109.259 32.1184 107.461 30.1583 104.394 29.8637C100.618 29.5008 97.93 31.6545 97.0793 34.5012C95.9695 38.2165 96.7426 41.597 99.5035 44.3581C102.004 46.8585 106.266 46.9106 108.809 44.582C110.539 42.9981 111.242 40.9694 111.253 38.495Z" fill="black"/>
<path fill-rule="evenodd" clip-rule="evenodd" d="M45.5526 18.1252C45.421 19.1101 44.6201 19.6186 43.9118 19.3639C43.7075 19.7173 43.58 20.1271 43.3048 20.3614C43.0266 20.5987 42.602 20.6627 42.1935 20.8211C42.3499 21.1349 42.1338 21.4664 41.8595 21.7951C41.5752 22.1357 41.2364 22.3127 40.7876 22.2359C40.9212 23.3016 40.5291 23.8546 39.5872 23.9624C39.8978 24.9245 39.532 25.6978 38.628 25.8803C38.9789 26.2364 38.965 26.6215 38.8117 27.0526C38.6626 27.4721 38.4516 27.785 37.8655 27.8682C38.3771 28.1929 38.3446 28.5999 38.2637 29.0359C38.1831 29.4697 38.0313 29.8241 37.5446 29.9337C38.2322 30.4785 38.0343 31.797 37.3042 32.06C38.0446 32.7494 38.057 33.5564 37.3182 34.192C37.7491 34.3772 37.8819 34.7215 37.9364 35.166C37.9661 35.4075 38.1449 35.6891 38.3419 35.8408C38.8911 36.2646 39.1244 36.7895 38.9808 37.4585C38.8701 37.9746 39.0262 38.3527 39.3847 38.7259C40.0342 39.4022 40.6376 40.1231 41.2643 40.8219C41.7413 41.3539 41.7565 41.4955 41.3746 42.0875C41.3352 42.1487 41.2992 42.2124 41.284 42.238C41.7122 42.7005 42.1165 43.1556 42.5456 43.5852C42.6253 43.665 42.8272 43.6988 42.9375 43.6583C44.007 43.2662 44.974 43.5325 45.9117 44.0748C46.6433 44.498 46.6475 44.4906 47.287 43.9234C47.4824 43.7503 47.6773 43.5767 47.88 43.3966C45.9008 40.4838 45.1616 37.343 45.9593 33.9074C46.5754 31.2541 48.0128 29.1057 50.1763 27.4931C54.9437 23.9402 61.2255 24.7457 64.9549 28.6124C69.1471 32.9593 69.1913 39.3907 65.605 43.764C63.5721 46.2427 60.9364 47.6207 57.7355 47.8288C54.5558 48.0357 51.7349 47.1131 49.3168 44.9452C48.925 45.2946 48.5562 45.6039 48.2167 45.942C48.1473 46.0115 48.1458 46.2031 48.1813 46.3165C48.3607 46.8874 48.6198 47.4382 48.7468 48.0192C49.145 49.8401 47.7143 51.531 45.7562 51.1767C44.0452 50.8668 42.8557 49.8478 42.0168 48.383C41.5531 47.5732 41.2395 46.7022 41.3898 45.7294C41.4076 45.6139 41.3455 45.471 41.2843 45.3617C40.8718 44.6256 40.4497 43.895 40.0309 43.1623C40.063 43.1431 40.0951 43.1239 40.1275 43.1048C40.1018 43.0935 40.073 43.0673 40.0506 43.0722C39.0283 43.2744 39.0274 43.2732 38.6092 42.3148C38.1686 41.3054 37.7385 40.2906 37.2718 39.2935C37.1788 39.0945 36.9685 38.8968 36.7651 38.8136C35.6538 38.3573 35.2807 37.1261 36.0199 36.1872C36.2535 35.8901 36.2939 35.5955 36.2548 35.2442C36.1926 34.6873 36.2499 34.5783 36.5648 34.3403C36.4263 33.9028 36.2593 33.5181 36.1887 33.1159C36.1081 32.6565 36.1826 32.2187 36.8615 32.0584C36.279 31.7888 36.196 31.3903 36.2484 30.8898C36.2987 30.4102 36.4002 30.0154 36.9436 29.8923C36.2326 29.2495 36.5808 27.9656 37.353 27.7213C36.8518 26.8131 37.1354 25.9707 38.061 25.6173C37.6294 24.6552 38.057 23.8366 39.0586 23.7071C38.7341 22.706 39.2978 21.8457 40.2603 21.8725C40.1242 20.8494 40.8512 20.0488 41.8147 20.2831C41.5225 19.7338 41.8177 19.4126 42.1783 19.0989C42.5365 18.7872 42.9129 18.6178 43.376 18.8454C43.5697 17.7894 44.3291 17.288 45.2007 17.5978C45.5117 16.6061 46.2905 16.2253 47.1739 16.6329C47.3955 15.6629 48.2998 15.2681 49.2226 15.8268C49.1714 15.2212 49.5575 15.0527 50.0102 14.8815C50.4806 14.7035 50.8591 14.7273 51.1946 15.1209C51.6037 14.2085 52.5347 13.9446 53.349 14.5482C53.5396 14.0863 53.9473 13.9861 54.3897 13.9008C54.8889 13.8045 55.2513 13.9382 55.481 14.412C56.0841 13.5714 57.1766 13.6275 57.7224 14.5384C58.0197 14.1323 58.3967 14.043 58.8719 14.1762C59.3002 14.2962 59.6996 14.3952 59.7726 14.9396C60.3696 14.263 61.6558 14.5838 61.9137 15.3375C62.8538 14.8626 63.6181 15.0576 64.0054 15.8707C64.9643 15.4375 65.7892 15.6879 66.0726 16.5638C66.4393 16.2329 66.8269 16.1945 67.2648 16.4115C67.6451 16.6 68.1146 16.6643 68.0118 17.2788C68.9144 16.8115 69.8011 17.0275 70.1308 17.8028C70.389 17.376 70.7539 17.323 71.193 17.4086C71.5931 17.486 72.0583 17.3998 72.1183 17.8903C72.5135 17.7471 72.8665 17.5813 73.2381 17.4939C73.6714 17.3918 74.0545 17.5152 74.2751 17.9667C74.6961 17.2407 75.7389 16.9976 76.369 17.5585C76.806 16.7508 77.5151 16.5086 78.3213 16.8913C78.7977 15.91 79.3226 15.609 80.0072 15.835C80.2272 15.4838 80.3733 15.0969 80.6466 14.8574C80.9127 14.6246 81.3097 14.543 81.6831 14.38C81.5706 13.6503 82.3065 12.8686 83.0668 12.9195C82.7392 12.2498 83.2856 11.3901 84.0163 11.1342C83.4938 10.385 83.6114 9.57308 84.3927 9.07435C83.8221 8.85287 83.7029 8.3907 83.7414 7.88893C83.7623 7.61504 83.8905 7.34907 83.9599 7.11448C83.7475 6.87441 83.459 6.6188 83.2605 6.30561C83.0396 5.95708 82.9944 5.55676 83.3029 5.18843C82.2762 5.01356 81.9455 4.64522 81.8988 3.62979C81.4779 3.78517 81.1357 3.64046 80.7724 3.41105C80.3836 3.16549 80.2475 2.84621 80.2769 2.41299C79.3107 2.71795 78.7319 2.48489 78.3952 1.75797C77.9788 1.81433 77.5966 1.90451 77.2139 1.90756C76.8005 1.91121 76.4332 1.76254 76.2944 1.22573C76.0071 1.64677 75.6413 1.71867 75.2079 1.70557C74.787 1.69277 74.4127 1.67206 74.2724 1.31073C73.9451 1.4981 73.6439 1.73116 73.3032 1.84937C72.9253 1.98068 72.5177 1.97611 72.1604 1.56177C72.1098 2.11412 71.8052 2.38557 71.3973 2.60127C71.2585 2.67438 71.1476 2.89039 71.1142 3.05886C70.9864 3.70748 70.65 4.13522 70.0132 4.35671C69.8193 4.42435 69.6368 4.63791 69.5323 4.83015C69.1644 5.50619 68.7092 6.07285 67.9776 6.37751C67.7203 6.48475 67.7085 6.83389 67.9476 7.01212C68.0755 7.10748 68.227 7.17084 68.3673 7.24975C70.1405 8.2469 71.9128 9.24466 73.6863 10.2412C74.006 10.4206 74.2309 10.6452 74.1036 11.0549C73.9815 11.4486 73.6184 11.6353 73.2417 11.4696C72.9344 11.3343 72.6386 11.1707 72.3456 11.0062C70.7127 10.0886 69.0853 9.16027 67.4451 8.25634C67.2833 8.16738 67.0312 8.1619 66.846 8.21186C66.1471 8.39953 65.628 8.11742 65.4028 7.44839C65.3283 7.22629 65.1489 6.9847 64.9501 6.86923C63.129 5.80993 61.2928 4.77653 59.4614 3.73521C59.3468 3.67001 59.2305 3.60695 59.122 3.53261C58.8228 3.32757 58.6756 3.05612 58.8456 2.70302C59.0035 2.37521 59.4068 2.24268 59.7526 2.41756C60.3009 2.6948 60.8382 2.99458 61.3734 3.29619C62.7871 4.09379 64.1933 4.90449 65.6104 5.69569C66.1932 6.02106 66.6981 5.76454 66.936 5.15157C67.1175 4.683 67.3933 4.24581 67.6682 3.82173C67.7943 3.62736 67.8864 3.49422 67.8121 3.23648C67.4572 2.00322 68.4561 0.897614 69.7196 1.1389C70.1675 1.22451 70.5463 1.19648 70.9176 0.926556C71.2661 0.67308 71.6067 0.748331 71.9801 1.08315C72.0195 0.447328 72.445 0.31602 72.9235 0.196898C73.4163 0.0744251 73.8248 0.0902677 74.1294 0.664854C74.3791 0.158207 74.7521 -0.020933 75.2486 0.00191645C75.7128 0.0232426 76.1229 0.101845 76.3071 0.602704C77.1148 -0.0145351 78.0458 0.13292 78.501 0.981699C78.8858 0.638958 79.2847 0.58351 79.7517 0.866538C80.1508 1.10844 80.583 1.27326 80.4911 1.86704C81.4785 1.54258 82.4089 2.21801 82.3222 3.15605C83.355 3.01895 84.119 3.87961 83.7793 4.79786C84.8715 5.07144 85.277 6.06889 84.6409 6.91828C85.6122 7.23543 85.7919 8.29138 84.9731 9.11152C85.3095 9.42075 85.5837 9.75679 85.4158 10.2823C85.2779 10.7146 85.2998 11.2387 84.5361 11.2064C84.9421 11.6704 85.0309 12.0804 84.7033 12.5624C84.4197 12.9798 84.183 13.3923 83.5705 13.2326C83.849 14.2685 83.2529 15.0338 82.1877 14.996C82.2962 15.4847 82.1434 15.8646 81.7303 16.1622C81.3603 16.4288 81.0224 16.7018 80.4881 16.3633C80.5118 16.9087 80.3202 17.249 79.8687 17.4677C79.4556 17.6676 79.0795 17.8753 78.5779 17.4214C78.6149 18.0798 78.2079 18.2485 77.7654 18.4185C77.3178 18.5907 76.9193 18.6099 76.5675 18.2379C76.0007 19.1485 75.0367 19.299 74.3367 18.5325C74.1933 19.1305 73.7611 19.1546 73.2799 19.1494C72.8183 19.1445 72.3789 19.165 72.2353 18.5754C71.5188 19.359 70.5187 19.2591 69.9972 18.3497C69.6817 18.7089 69.3192 18.8633 68.8407 18.6833C68.4273 18.5276 67.9485 18.4917 67.957 17.8808C66.943 18.3186 66.2311 18.0545 65.8868 17.1509C64.9634 17.6264 64.1797 17.4071 63.8439 16.5196C63.516 16.8846 63.1257 16.887 62.6914 16.7935C62.2525 16.6991 61.9137 16.537 61.8189 15.9301C61.4891 16.406 61.0873 16.4242 60.6585 16.3109C60.2421 16.2006 59.8184 16.0977 59.7166 15.506C59.3626 15.9249 58.9638 15.9545 58.5274 15.8679C58.1037 15.7836 57.7297 15.6507 57.6424 15.1459C56.8278 15.75 56.1317 15.7159 55.5338 15.0682C54.8501 15.7522 54.1873 15.8183 53.4645 15.2751C52.9332 16.0032 52.1665 16.1805 51.4264 15.7467C50.8773 16.6031 50.2081 16.809 49.3814 16.3761C49.072 17.28 48.2204 17.6529 47.4445 17.1798C47.4445 17.6758 47.1415 17.9323 46.7593 18.1444C46.3675 18.361 45.9853 18.4981 45.5526 18.1252ZM62.0425 45.2602C62.6556 44.8276 63.2802 44.4102 63.8751 43.9538C64.0688 43.8052 64.1851 43.5538 64.3367 43.35C64.5976 43.0609 64.8585 42.7718 65.1195 42.4826C65.5662 41.6789 66.128 40.9179 66.4405 40.0646C68.5849 34.2102 65.0158 27.5547 58.5231 26.5222C55.5671 26.0521 52.8941 26.7735 50.5518 28.6453C47.1612 31.3553 45.7674 36.3173 47.5764 40.5078C48.5665 42.801 50.1548 44.5126 52.3447 45.6541C54.4018 46.7268 56.5799 46.9541 58.8571 46.5413C60.0266 46.3299 61.0985 45.9433 62.0607 45.2468L62.0425 45.2602ZM42.2871 46.4319C42.4777 46.9115 42.6062 47.3258 42.8005 47.706C43.4621 48.9999 44.4616 49.8999 45.9114 50.182C47.1436 50.4214 48.077 49.3914 47.7664 48.1709C47.7385 48.0612 47.637 47.9184 47.5391 47.8873C47.2424 47.7931 46.9309 47.7468 46.6063 47.6777C46.5827 47.7404 46.5554 47.8062 46.5333 47.8736C46.3029 48.5761 45.8441 48.8144 45.1846 48.4777C44.821 48.2925 44.4679 48.0061 44.2231 47.6801C43.546 46.7798 43.8303 46.0145 44.9777 45.7105C44.8604 45.3376 44.8522 44.7996 44.5994 44.6299C44.2309 44.3822 43.6894 44.4471 43.2254 44.6363C43.2918 44.9111 43.349 45.1383 43.4018 45.3671C43.6312 46.3667 43.4557 46.5657 42.2871 46.4319ZM38.5231 37.0743C38.4637 36.9436 38.3868 36.671 38.2316 36.4544C37.944 36.0534 36.5569 36.1954 36.3145 36.6295C36.0329 37.134 36.1832 37.8271 36.649 38.1681C36.8775 38.3356 37.0439 38.3603 37.2709 38.0974C37.4503 37.889 37.79 37.6629 38.0255 37.6949C38.4856 37.7571 38.5113 37.5386 38.5231 37.0743ZM69.822 3.87931C70.2833 3.68524 70.7257 3.18865 70.6012 2.86266C70.4369 2.4334 70.1672 2.00962 69.8405 1.68881C69.5753 1.42863 68.9059 1.62666 68.6016 1.94046C68.2688 2.2832 68.2013 2.76487 68.4289 3.16976C69.3511 2.95924 69.5177 3.04119 69.822 3.87931ZM69.1035 4.49472C68.8292 4.35153 68.6046 4.21657 68.3649 4.11816C68.2819 4.08404 68.1025 4.10323 68.0685 4.1596C67.8173 4.57911 67.5354 4.99436 67.3757 5.45074C67.2506 5.80811 67.483 5.97658 67.8446 5.84101C68.4583 5.6116 68.8077 5.11897 69.1035 4.49472ZM37.7958 31.1265C37.5685 30.7822 37.417 30.498 37.2073 30.2673C37.1442 30.1979 36.8748 30.2204 36.7766 30.2984C36.4863 30.5293 36.5093 30.8565 36.6154 31.1816C36.6199 31.1953 36.6212 31.2103 36.6248 31.2243C36.7063 31.5466 36.9048 31.7949 37.2367 31.6956C37.4318 31.6374 37.5658 31.372 37.7958 31.1265ZM64.814 17.0601C65.0604 17.025 65.2516 17.0503 65.368 16.9678C65.5171 16.8623 65.6671 16.682 65.698 16.512C65.7192 16.3953 65.5677 16.2015 65.4434 16.112C65.1231 15.8804 64.7722 15.9587 64.4461 16.1175C64.1491 16.2625 64.0885 16.6296 64.3418 16.8477C64.4837 16.9702 64.6958 17.0098 64.814 17.0601ZM77.3336 1.72507C77.5815 1.56116 77.8615 1.42802 78.0609 1.21751C78.1337 1.14104 78.0561 0.754119 77.9755 0.727309C77.6915 0.63317 77.3709 0.581073 77.0751 0.613976C76.7893 0.645966 76.5569 0.855875 76.6138 1.19405C76.6735 1.54776 76.946 1.64037 77.3336 1.72507ZM67.0572 17.7285C67.4536 17.7395 67.7473 17.5265 67.7561 17.2222C67.7661 16.8767 67.4336 16.6497 66.876 16.6214C66.6096 16.6077 66.2423 16.9233 66.2314 17.1752C66.2184 17.4729 66.5805 17.7157 67.0572 17.7285ZM69.2601 17.2934C68.7365 17.2773 68.1967 17.6045 68.2764 17.8385C68.3513 18.0575 68.6004 18.3271 68.8086 18.3625C69.0729 18.4073 69.3944 18.2784 69.6462 18.1407C69.7411 18.0889 69.7932 17.7459 69.7184 17.6383C69.5923 17.4561 69.3495 17.3556 69.2601 17.2934ZM51.9774 15.7214C52.5253 15.7187 53.0796 15.297 53.0717 14.9872C53.0632 14.6457 52.839 14.4948 52.5235 14.4909C52.1341 14.4857 51.5625 14.9433 51.6349 15.2403C51.6852 15.4478 51.8971 15.6151 51.9774 15.7214ZM83.5699 4.40424C83.5554 3.88723 82.7844 3.36779 82.4262 3.54053C82.3228 3.59049 82.1837 3.73551 82.194 3.82082C82.2195 4.03194 82.264 4.30126 82.4062 4.42435C82.6547 4.64004 82.9465 4.92825 83.3308 4.72078C83.4596 4.65101 83.5263 4.46517 83.5699 4.40424ZM71.8692 18.1349C71.8428 17.7934 71.5967 17.6843 71.27 17.6855C70.7527 17.6868 70.3881 17.9366 70.4033 18.2918C70.4175 18.6312 70.6318 18.782 70.9515 18.789C71.4561 18.8003 71.8731 18.5148 71.8692 18.1349ZM62.9387 15.4341C62.4098 15.4457 62.1504 15.6053 62.1434 15.9234C62.1362 16.2634 62.4707 16.5092 62.929 16.5007C63.3605 16.4928 63.6257 16.2744 63.616 15.935C63.6066 15.6014 63.3678 15.4247 62.9387 15.4341ZM37.5079 26.6824C37.5018 27.3237 37.6543 27.544 38.0249 27.501C38.3525 27.463 38.5044 27.261 38.5001 26.9319C38.4956 26.573 38.5925 26.138 38.0998 26.0496C37.9401 26.021 37.7076 26.2096 37.564 26.3546C37.4827 26.4363 37.5149 26.6315 37.5079 26.6824ZM39.6754 23.6508C40.1678 23.6355 40.5021 23.1429 40.4739 22.6829C40.4554 22.38 40.28 22.189 39.9833 22.1628C39.682 22.1363 39.2396 22.7639 39.3247 23.1679C39.3678 23.3735 39.5908 23.5405 39.6754 23.6508ZM85.0746 10.2141C85.0737 10.2034 85.0703 10.1306 85.0622 10.0581C85.0134 9.6331 84.7503 9.36378 84.4445 9.4238C84.1348 9.48473 83.9684 9.82717 84.0554 10.2275C84.0709 10.2988 84.0903 10.3692 84.1063 10.4404C84.18 10.7628 84.343 10.9873 84.7091 10.9209C85.0688 10.8557 85.0891 10.569 85.0746 10.2141ZM47.9243 17.1155C48.4522 17.1085 48.9753 16.6198 48.9674 16.2667C48.9604 15.9526 48.7516 15.8299 48.4746 15.8186C48.1092 15.8037 47.5315 16.3219 47.5952 16.6567C47.6318 16.8517 47.8458 17.0125 47.9243 17.1155ZM79.3526 17.4899C79.5741 17.2633 79.8253 17.0573 80.005 16.8008C80.0917 16.6774 80.1202 16.3868 80.0393 16.3003C79.9132 16.1659 79.6683 16.0751 79.4798 16.0846C79.1638 16.0998 78.8155 16.5671 78.7983 16.8959C78.781 17.2285 78.9698 17.3653 79.3526 17.4899ZM37.921 28.9872C37.9146 28.8909 37.9125 28.847 37.9092 28.8028C37.8725 28.2977 37.7082 28.0793 37.3749 28.0918C37.0345 28.1046 36.8657 28.3958 36.9118 28.8906C36.916 28.9345 36.9203 28.9783 36.9254 29.0219C36.9672 29.3689 37.1327 29.6379 37.5049 29.5977C37.8634 29.559 37.9489 29.2632 37.921 28.9872ZM83.2838 13.7774C83.2914 13.4648 83.0811 13.2278 82.7947 13.2269C82.4583 13.2256 82.1425 13.6707 82.1183 14.1734C82.1031 14.4933 82.2598 14.6837 82.5665 14.699C82.9077 14.7154 83.2726 14.2246 83.2838 13.7774ZM56.2575 15.3022C56.569 15.2074 56.8257 15.1879 57.0024 15.0585C57.1575 14.9448 57.3491 14.6551 57.3 14.5378C57.2242 14.3559 56.9675 14.1658 56.769 14.143C56.5472 14.1177 56.2714 14.2295 56.082 14.3681C55.9514 14.4638 55.842 14.727 55.878 14.8784C55.9183 15.0466 56.1335 15.173 56.2575 15.3022ZM84.3612 6.63891C84.4354 6.53106 84.6309 6.36563 84.6661 6.17065C84.73 5.81603 84.2015 5.26429 83.853 5.27008C83.5266 5.27526 83.3881 5.50528 83.3684 5.78861C83.3466 6.10454 83.8899 6.62977 84.3612 6.63891ZM80.5733 15.8682C80.6724 15.9432 80.8312 16.1507 81.0239 16.1903C81.3627 16.26 81.8031 15.7059 81.7925 15.2812C81.7852 14.9969 81.6567 14.8047 81.3503 14.7925C81.0042 14.7785 80.569 15.2982 80.5733 15.8682ZM41.8025 20.865C41.6952 20.7778 41.5325 20.5521 41.3267 20.5003C41.0449 20.4296 40.6 21.0407 40.6215 21.4365C40.637 21.7217 40.7706 21.9514 41.0979 21.9629C41.4355 21.9745 41.785 21.4956 41.8025 20.865ZM50.0836 16.4623C50.3772 16.2104 50.6582 16.0169 50.8706 15.7647C50.9582 15.6611 50.9679 15.3741 50.887 15.2739C50.7867 15.1496 50.5248 15.0426 50.3866 15.0892C50.1372 15.1733 49.8972 15.3479 49.7141 15.5423C49.6129 15.6498 49.5702 15.8984 49.6205 16.0404C49.672 16.1857 49.8699 16.278 50.0836 16.4623ZM73.4196 17.8047C72.9441 17.7989 72.5041 18.0749 72.5286 18.4286C72.5532 18.7762 72.7935 18.8847 73.1075 18.8868C73.5687 18.8905 74.0336 18.5761 74.0224 18.244C74.0112 17.9095 73.7881 17.8022 73.4196 17.8047ZM38.7983 25.6959C39.0265 25.384 39.2044 25.2118 39.2947 25.0013C39.4278 24.6909 39.4435 24.3426 39.1044 24.1489C38.9656 24.0697 38.6192 24.0712 38.5859 24.1413C38.4422 24.4426 38.3259 24.7807 38.3119 25.1104C38.3056 25.2606 38.5598 25.4217 38.7983 25.6959ZM78.1755 17.3145C78.0824 17.242 77.937 17.0616 77.7521 16.9994C77.4654 16.9032 76.9026 17.3136 76.8114 17.6331C76.7357 17.8985 76.8254 18.088 77.0733 18.2035C77.0863 18.2096 77.0999 18.215 77.1136 18.2193C77.4842 18.336 78.1664 17.8488 78.1755 17.3145ZM44.7452 17.7803C44.2549 17.8284 44.0385 18.1526 43.8861 18.4999C43.8291 18.6297 43.8794 18.8871 43.9788 18.991C44.2482 19.2707 44.5322 19.1516 44.7789 18.9112C45.1425 18.5566 45.2513 18.1815 45.038 17.9552C44.9546 17.8668 44.8225 17.8248 44.7452 17.7803ZM75.6007 17.5186C75.2846 17.5204 74.687 17.9774 74.6949 18.2284C74.7034 18.4984 74.7976 18.7323 75.1122 18.7521C75.4758 18.7753 76.1317 18.3177 76.1253 18.0502C76.1174 17.7169 75.9268 17.5445 75.6007 17.5186ZM46.7075 16.728C46.1999 16.7338 45.6765 17.234 45.6692 17.5801C45.6626 17.8945 45.8605 18.0328 46.1302 18.0609C46.4102 18.0901 47.0766 17.4692 47.0157 17.2069C46.9694 17.0071 46.7839 16.8398 46.7075 16.728ZM84.4936 12.0826C84.4794 11.7355 84.3882 11.4745 83.9981 11.4745C83.6405 11.4745 83.3438 11.9385 83.3766 12.4451C83.3957 12.7394 83.5532 12.9761 83.8581 12.9603C84.0148 12.9521 84.2039 12.7942 84.3024 12.651C84.4112 12.4932 84.4333 12.2748 84.4936 12.0826ZM37.5703 33.4675C37.5682 32.8569 37.2406 32.3789 36.9182 32.3832C36.5596 32.3878 36.4472 32.6348 36.4417 32.9444C36.4333 33.437 36.7594 33.9105 37.0909 33.83C37.2979 33.7798 37.4631 33.5534 37.5703 33.4675ZM82.0046 2.80569C82.0067 2.45594 81.5915 2.12874 81.1139 2.1327C80.8066 2.13514 80.5705 2.26766 80.5578 2.62046C80.5463 2.93852 81.0745 3.32453 81.5012 3.29894C81.7958 3.28096 81.9979 3.13594 82.0046 2.80569ZM54.223 15.4116C54.5291 15.2416 54.8234 15.1352 55.0334 14.9378C55.1401 14.8376 55.1789 14.511 55.0967 14.3992C54.9925 14.2575 54.7261 14.1539 54.5446 14.1734C54.3291 14.1966 54.0933 14.3315 53.9348 14.4878C53.8142 14.6073 53.7191 14.8592 53.7615 15.0097C53.8042 15.1596 54.0324 15.2559 54.223 15.4116ZM43.393 19.363C43.2915 19.2795 43.1405 19.072 42.9457 19.0148C42.6859 18.9383 42.1529 19.568 42.1332 19.93C42.1153 20.2495 42.2911 20.425 42.5971 20.4461C42.9014 20.4668 43.3654 19.9044 43.393 19.363ZM58.7856 14.4799C58.6822 14.4967 58.5662 14.5089 58.4537 14.5354C58.1507 14.607 57.9149 14.805 57.9788 15.1112C58.0446 15.4265 58.2928 15.6324 58.6677 15.5517C58.7528 15.5331 58.8404 15.5279 58.9256 15.5094C59.2398 15.4408 59.4832 15.2845 59.445 14.9238C59.4053 14.5466 59.1035 14.4988 58.7856 14.4799ZM72.4001 1.28605C72.4801 1.36496 72.6614 1.64829 72.7589 1.62179C73.1053 1.52734 73.4457 1.35887 73.7366 1.14682C73.8205 1.08589 73.7314 0.783976 73.7193 0.592955C73.7187 0.582596 73.6996 0.56584 73.6878 0.564621C73.4702 0.545123 73.2293 0.459209 73.0405 0.525015C72.7538 0.624639 72.4119 0.739496 72.4001 1.28605ZM84.7585 8.88486C84.9334 8.65301 85.1746 8.46382 85.1431 8.35109C85.044 7.99434 84.8688 7.64794 84.6588 7.34237C84.6197 7.2854 84.1187 7.41975 84.1121 7.49196C84.0845 7.79296 84.1187 8.12047 84.2215 8.40532C84.2812 8.57106 84.5127 8.67495 84.7585 8.88486ZM60.5951 15.9542C61.2667 15.9532 61.537 15.7991 61.5304 15.418C61.5231 14.9884 61.2061 14.9476 60.8906 14.9436C60.3442 14.9369 60.0551 15.1349 60.0645 15.4966C60.0736 15.8515 60.2872 15.9761 60.5951 15.9542ZM75.9526 0.804997C75.9486 0.454639 75.7416 0.309013 75.4237 0.300787C74.9785 0.28921 74.4909 0.620374 74.4967 0.930212C74.5027 1.27082 74.7031 1.4265 75.0304 1.42894C75.511 1.4329 75.9429 1.1389 75.9526 0.804997ZM79.5765 2.15585C79.8075 2.15921 80.1305 2.14641 80.1657 1.7208C80.199 1.31621 79.9205 1.19252 79.5856 1.15383C79.4414 1.13708 79.2935 1.12976 79.1492 1.14104C78.8804 1.16236 78.7086 1.30281 78.7146 1.59041C78.7207 1.86734 78.8362 2.0736 79.1362 2.11808C79.2516 2.13514 79.3692 2.13879 79.5765 2.15585ZM40.9279 42.8053C40.8815 42.837 40.8352 42.8683 40.7888 42.9C40.8079 43.0511 40.7979 43.2141 40.8518 43.3509C40.9912 43.7043 41.1404 44.0574 41.3258 44.388C41.3973 44.5153 41.578 44.5808 41.7089 44.674C41.8231 44.4236 42.1016 44.0541 42.0226 43.9429C41.7204 43.5188 41.3025 43.1779 40.9279 42.8053ZM37.6315 35.4916C37.62 34.9432 37.3258 34.496 37.0006 34.5088C36.733 34.5195 36.4675 34.8793 36.5042 35.1815C36.5548 35.6007 36.7854 35.6671 37.6315 35.4916ZM71.2039 2.35266C71.7895 1.83627 71.9125 1.55903 71.6734 1.2955C71.4543 1.0539 71.0642 1.05847 70.8124 1.30525C70.5775 1.53557 70.6827 1.81646 71.2039 2.35266ZM42.3759 45.6389C42.5653 45.7422 42.7269 45.8299 42.9917 45.974C42.8832 45.599 42.8102 45.3467 42.7005 44.9671C42.5608 45.2556 42.4774 45.4281 42.3759 45.6389Z" fill="black"/>
<path fill-rule="evenodd" clip-rule="evenodd" d="M30.1088 39.2054C32.4487 42.8226 35.2289 46.0788 38.3116 49.2266C38.0622 49.2266 37.9231 49.2266 37.7837 49.2266C36.483 49.2266 35.1816 49.2116 33.8812 49.2363C33.5118 49.2433 33.2539 49.123 32.992 48.8808C30.336 46.421 28.0465 43.6403 25.8941 40.7376C25.7805 40.5846 25.6675 40.4311 25.5517 40.28C25.5356 40.2595 25.5047 40.2501 25.4292 40.205C25.355 43.2473 25.4947 46.2351 26.2727 49.1991C24.3404 49.1991 22.4484 49.1991 20.5358 49.1991C20.6915 48.5185 20.8991 47.8474 20.9895 47.161C21.1443 45.9835 21.308 44.7974 21.3222 43.6129C21.3655 39.9692 21.3568 36.3246 21.3337 32.6805C21.3219 30.8233 20.994 29 20.597 27.1906C20.5758 27.0928 20.567 26.9926 20.5537 26.9018C20.5964 26.8747 20.6197 26.8466 20.6431 26.8466C23.4476 26.8305 26.2587 26.7321 29.0235 27.3545C30.5824 27.7055 31.9762 28.3626 33.0148 29.6458C34.5007 31.4811 35.0089 35.6141 32.0359 37.9195C31.4392 38.3816 30.7791 38.7615 30.1088 39.2054ZM25.4389 29.6967C25.4389 32.3619 25.4389 34.9972 25.4389 37.6334C27.9874 37.5542 29.8984 35.7972 29.8863 33.5674C29.8736 31.256 28.1871 29.7741 25.4389 29.6967Z" fill="black"/>
<path fill-rule="evenodd" clip-rule="evenodd" d="M18.6683 31.9661C17.6043 31.4515 16.6151 30.9099 15.5778 30.4858C13.9012 29.8003 12.1511 29.6096 10.3752 30.0306C7.7613 30.6503 6.13388 32.3725 5.32048 34.8698C4.6195 37.021 4.64163 39.2197 5.3332 41.3758C6.49816 45.0077 9.74845 46.8612 13.5021 46.0962C15.282 45.7337 16.8591 44.9269 18.3468 43.9145C18.6214 43.7281 18.8926 43.5361 19.2429 43.2933C19.1954 44.3389 19.152 45.2992 19.1072 46.2601C19.0929 46.5684 19.0411 46.8795 19.0669 47.1838C19.106 47.6457 18.9356 47.8736 18.4944 48.0488C16.2342 48.9457 13.9294 49.6144 11.4719 49.5507C8.12861 49.4636 5.2432 48.3297 3.03512 45.7187C1.04737 43.3677 0.40246 40.588 0.569142 37.5816C0.783707 33.7082 2.43992 30.6238 5.67778 28.4607C7.81858 27.0306 10.2197 26.5139 12.7596 26.5246C14.6601 26.5322 16.5094 26.8631 18.3274 27.3923C18.4598 27.4307 18.6523 27.5937 18.6541 27.7015C18.6756 29.1227 18.6683 30.5449 18.6683 31.9661Z" fill="black"/>
<path fill-rule="evenodd" clip-rule="evenodd" d="M117.179 43.1617C117.503 43.5538 117.821 43.9514 118.152 44.3368C118.932 45.2441 119.81 46.0045 121.047 46.1833C122.344 46.3701 123.523 46.1258 124.487 45.1706C125.44 44.2274 125.608 42.8796 124.805 41.8112C124.354 41.2113 123.779 40.6842 123.188 40.216C122.018 39.2889 120.791 38.4328 119.598 37.5341C117.347 35.8377 116.55 32.6927 117.772 30.1826C118.707 28.2609 120.347 27.2162 122.359 26.7531C124.442 26.2739 126.484 26.5173 128.456 27.3341C128.567 27.3798 128.717 27.5178 128.718 27.6141C128.735 29.1383 128.73 30.6628 128.73 32.2985C128.391 31.9969 128.127 31.7547 127.855 31.5228C127.465 31.1905 127.088 30.8374 126.67 30.5431C125.624 29.8058 124.46 29.6245 123.246 29.9938C121.591 30.4974 120.973 32.3116 122.012 33.6941C122.446 34.2709 123.013 34.7632 123.581 35.2165C124.702 36.1119 125.872 36.9461 127.012 37.818C130.7 40.6379 130.511 46.3253 126.17 48.5C123.253 49.9608 120.285 49.9127 117.338 48.5295C117.231 48.4795 117.099 48.3303 117.098 48.2261C117.083 46.5535 117.088 44.8803 117.088 43.2074C117.118 43.1919 117.148 43.1767 117.179 43.1617Z" fill="black"/>
<path fill-rule="evenodd" clip-rule="evenodd" d="M65.1198 42.4823C64.8588 42.7712 64.5979 43.0603 64.337 43.3497C63.5724 43.9864 62.8074 44.6235 62.0425 45.2602L62.0613 45.2468C61.8871 45.3169 61.708 45.3775 61.5395 45.4592C58.3022 47.0266 55.0928 47.0504 51.9425 45.2371C49.1856 43.6507 47.5612 41.2396 47.0733 38.0995C46.9312 37.1849 46.9536 36.2222 47.0481 35.297C47.6309 29.577 53.3233 25.4994 58.9056 26.7345C62.1522 27.4526 64.5827 29.2796 65.9565 32.2793C67.4579 35.5574 67.2557 38.8499 65.3559 41.9769C65.2595 42.1347 65.1974 42.3136 65.1198 42.4823ZM66.2341 36.5835C66.1247 31.4403 62.2592 27.4106 57.2848 27.2546C51.6707 27.0788 47.8519 31.4208 47.6476 36.1555C47.4243 41.3414 51.4804 45.9518 56.9987 45.8994C61.8722 45.8534 66.0793 42.1804 66.2341 36.5835Z" fill="black"/>
<path fill-rule="evenodd" clip-rule="evenodd" d="M73.7348 56.181C74.4833 56.1728 75.0125 56.7181 75.0119 57.4965C75.0113 58.25 74.4903 58.8093 73.7769 58.823C73.0487 58.8367 72.501 58.2667 72.5013 57.4953C72.5013 56.7334 73.0123 56.1889 73.7348 56.181Z" fill="black"/>
<path fill-rule="evenodd" clip-rule="evenodd" d="M31.7628 57.4938C31.7634 56.6971 32.2693 56.1722 33.0281 56.181C33.7585 56.1895 34.2476 56.7178 34.2476 57.4968C34.2473 58.278 33.713 58.8376 32.9811 58.823C32.2629 58.8084 31.7622 58.2618 31.7628 57.4938Z" fill="black"/>
<path fill-rule="evenodd" clip-rule="evenodd" d="M3.63426 56.1216C3.63426 55.5056 3.63426 54.9575 3.63426 54.3433C4.12279 54.3698 4.58859 54.3625 5.04348 54.428C5.50019 54.4941 5.71172 54.7802 5.719 55.211C5.72657 55.6543 5.53989 55.944 5.08136 56.022C4.61556 56.1015 4.13461 56.0911 3.63426 56.1216Z" fill="black"/>
<path fill-rule="evenodd" clip-rule="evenodd" d="M123.8 57.0548C123.087 57.0548 122.405 57.0548 121.721 57.0548C121.791 56.503 122.153 56.1969 122.735 56.1825C123.37 56.1667 123.695 56.4232 123.8 57.0548Z" fill="black"/>
<path fill-rule="evenodd" clip-rule="evenodd" d="M79.7474 57.0694C79.1498 57.0694 78.5561 57.0706 77.9624 57.0685C77.8642 57.0682 77.7661 57.0557 77.6663 57.0487C77.7691 56.4549 78.15 56.1667 78.7877 56.1825C79.3629 56.1966 79.672 56.472 79.7474 57.0694Z" fill="black"/>
<path fill-rule="evenodd" clip-rule="evenodd" d="M49.5878 57.0456C49.699 56.4479 50.0772 56.1655 50.7151 56.1828C51.2888 56.1984 51.6004 56.4793 51.6667 57.0694C51.04 57.0694 50.4163 57.07 49.7926 57.0682C49.7248 57.0682 49.6572 57.0536 49.5878 57.0456Z" fill="black"/>
<path fill-rule="evenodd" clip-rule="evenodd" d="M41.6586 57.0581C40.947 57.0581 40.2788 57.0581 39.6099 57.0581C39.6323 56.5332 40.0066 56.2023 40.5879 56.1831C41.2473 56.1612 41.6037 56.4485 41.6586 57.0581Z" fill="black"/>
<path fill-rule="evenodd" clip-rule="evenodd" d="M24.5664 57.0563C23.8555 57.0563 23.1733 57.0563 22.4896 57.0563C22.5375 56.5311 22.8911 56.213 23.4442 56.1847C24.107 56.1509 24.4407 56.3988 24.5664 57.0563Z" fill="black"/>
<path fill-rule="evenodd" clip-rule="evenodd" d="M17.3706 57.6129C17.4158 58.5251 16.8712 59.022 16.1184 58.8203C15.936 58.7715 15.6872 58.5382 15.6796 58.38C15.6708 58.1908 15.8517 57.87 16.0157 57.8195C16.4351 57.6891 16.8909 57.6769 17.3706 57.6129Z" fill="black"/>
<path fill-rule="evenodd" clip-rule="evenodd" d="M9.99635 57.6205C10.0524 58.5181 9.50721 59.0195 8.752 58.8206C8.56925 58.7724 8.31832 58.5415 8.31014 58.3831C8.29983 58.1942 8.47985 57.8688 8.64168 57.8204C9.07263 57.6918 9.53813 57.6796 9.99635 57.6205Z" fill="black"/>
<path fill-rule="evenodd" clip-rule="evenodd" d="M106.958 57.6129C107.003 58.5244 106.458 59.022 105.705 58.8203C105.523 58.7715 105.274 58.5382 105.267 58.38C105.258 58.1908 105.439 57.8703 105.603 57.8195C106.022 57.6891 106.478 57.6769 106.958 57.6129Z" fill="black"/>
<path fill-rule="evenodd" clip-rule="evenodd" d="M63.5257 57.6129C63.5678 58.5263 63.022 59.0226 62.271 58.82C62.0889 58.7709 61.8404 58.5369 61.8334 58.3788C61.8252 58.1896 62.0065 57.8697 62.1707 57.8189C62.5901 57.6891 63.0459 57.6769 63.5257 57.6129Z" fill="black"/>
<path fill-rule="evenodd" clip-rule="evenodd" d="M116.164 57.4737C116.178 58.2399 115.635 58.8233 114.908 58.8239C114.195 58.8239 113.664 58.2716 113.653 57.5185C113.642 56.7565 114.147 56.1981 114.864 56.1819C115.618 56.1646 116.15 56.6928 116.164 57.4737Z" fill="black"/>
<path fill-rule="evenodd" clip-rule="evenodd" d="M88.0776 56.181C88.801 56.188 89.3128 56.7315 89.3141 57.4938C89.3153 58.2637 88.7667 58.8349 88.0385 58.823C87.3248 58.8111 86.8047 58.253 86.8032 57.4981C86.802 56.7196 87.3305 56.1734 88.0776 56.181Z" fill="black"/>
<path fill-rule="evenodd" clip-rule="evenodd" d="M57.2303 36.2545C57.1351 35.481 57.0618 34.7833 56.9536 34.0914C56.9318 33.9516 56.7851 33.8261 56.683 33.7051C56.4978 33.4858 56.4229 33.1997 56.6578 33.0486C56.8511 32.924 57.2045 32.881 57.403 32.977C57.6558 33.0991 57.7109 33.4008 57.5406 33.7045C57.4427 33.8794 57.3739 34.1039 57.3851 34.3007C57.4167 34.8424 57.5139 35.3798 57.5524 35.9215C57.5758 36.2496 57.7337 36.3849 58.0364 36.4294C58.4552 36.4909 58.8689 36.596 59.2889 36.6378C59.4899 36.6576 59.716 36.6109 59.9035 36.5305C60.2193 36.3952 60.4991 36.355 60.7224 36.664C60.9015 36.9116 60.823 37.3287 60.5563 37.4832C60.2293 37.6724 59.9502 37.5929 59.722 37.28C59.6417 37.1703 59.5144 37.0542 59.3893 37.025C58.8383 36.8961 58.2798 36.7983 57.6358 36.6719C57.7415 37.5654 57.7261 38.4279 57.9864 39.1957C58.1064 39.55 58.094 39.8473 58.1167 40.1752C58.1585 40.7805 58.1992 41.3865 58.244 42.0464C58.5489 41.9519 58.7395 41.8931 58.9829 41.8179C58.0955 42.5582 57.1218 42.2474 56.1844 42.1585C56.6408 42.1585 57.0972 42.1554 57.5536 42.1591C57.8173 42.1615 57.9358 42.0427 57.8812 41.7783C57.7282 41.0337 57.5715 40.2897 57.4306 39.6149C57.48 39.3605 57.5718 39.1445 57.5527 38.9385C57.4918 38.2811 57.4088 37.6236 57.2891 36.975C57.2606 36.8218 57.073 36.6131 56.926 36.5817C55.8417 36.3483 54.751 36.1433 53.6572 35.9599C53.5187 35.9367 53.3511 36.0897 53.1969 36.161C53.2035 36.2027 53.2102 36.2441 53.2166 36.2865C52.8835 36.1466 52.5589 35.9782 52.2153 35.8737C51.334 35.6047 50.4445 35.364 49.5578 35.1132C49.4317 35.0776 49.295 35.0669 49.1802 35.0103C49.1256 34.9832 49.0859 34.8735 49.0883 34.8028C49.0899 34.7632 49.1871 34.7172 49.2483 34.6928C49.2832 34.6791 49.3347 34.6977 49.3756 34.7111C50.6357 35.1224 51.9383 35.0517 53.2339 35.0584C53.3048 35.0587 53.3754 35.073 53.4645 35.0831C53.4645 35.2235 53.4645 35.3494 53.4645 35.5215C54.6834 35.7588 55.9096 35.9974 57.2303 36.2545Z" fill="black"/>
<path fill-rule="evenodd" clip-rule="evenodd" d="M52.218 31.1061C51.2482 30.8517 51.0728 30.6265 51.124 29.7263C52.0174 29.8695 52.2065 30.101 52.218 31.1061Z" fill="black"/>
<path fill-rule="evenodd" clip-rule="evenodd" d="M61.934 41.7819C62.8659 42.004 63.0296 42.2115 63.0326 43.176C62.1347 42.9963 61.9052 42.7047 61.934 41.7819Z" fill="black"/>
<path fill-rule="evenodd" clip-rule="evenodd" d="M50.45 42.5963C50.6767 41.6305 50.7294 41.5836 51.7449 41.4157C51.7131 42.287 51.3952 42.5838 50.45 42.5963Z" fill="black"/>
<path fill-rule="evenodd" clip-rule="evenodd" d="M62.2622 31.7915C62.4426 30.8739 62.642 30.6936 63.5563 30.622C63.4808 31.4845 63.1466 31.7867 62.2622 31.7915Z" fill="black"/>
<path fill-rule="evenodd" clip-rule="evenodd" d="M54.8604 31.1841C55.4119 31.0576 55.9635 30.9309 56.5151 30.8045C56.5232 30.8422 56.532 30.88 56.5402 30.9178C55.9823 31.0415 55.4247 31.1652 54.867 31.2889C54.8652 31.2538 54.8628 31.2188 54.8604 31.1841Z" fill="black"/>
<path fill-rule="evenodd" clip-rule="evenodd" d="M51.3325 37.7677C51.2864 37.2751 51.2403 36.7825 51.1943 36.2892C51.2252 36.2865 51.2558 36.284 51.2864 36.2819C51.3179 36.7715 51.3491 37.2611 51.3807 37.7507C51.3646 37.7565 51.3485 37.7619 51.3325 37.7677Z" fill="black"/>
<path fill-rule="evenodd" clip-rule="evenodd" d="M62.4362 34.9716C62.4944 35.4706 62.5526 35.9696 62.6108 36.4687C62.5844 36.472 62.558 36.4751 62.5317 36.4784C62.4698 35.9821 62.4083 35.4858 62.3468 34.9893C62.3768 34.9835 62.4065 34.9774 62.4362 34.9716Z" fill="black"/>
</svg>
