<svg width="31" height="31" viewBox="0 0 31 31" fill="none" xmlns="http://www.w3.org/2000/svg">
<g clip-path="url(#clip0)">
<path d="M20.6989 3.45999C16.0859 -1.15301 8.57786 -1.15301 3.96486 3.45999C-0.647141 8.07399 -0.647141 15.581 3.96486 20.195C8.07286 24.302 14.4709 24.742 19.0809 21.535C19.1779 21.994 19.3999 22.432 19.7569 22.789L26.4749 29.507C27.4539 30.484 29.0359 30.484 30.0099 29.507C30.9879 28.529 30.9879 26.947 30.0099 25.972L23.2919 19.252C22.9369 18.898 22.4979 18.675 22.0389 18.578C25.2479 13.967 24.8079 7.56999 20.6989 3.45999ZM18.5779 18.074C15.1339 21.518 9.52886 21.518 6.08586 18.074C2.64386 14.63 2.64386 9.02599 6.08586 5.58199C9.52886 2.13899 15.1339 2.13899 18.5779 5.58199C22.0219 9.02599 22.0219 14.63 18.5779 18.074Z" fill="black"/>
</g>
<defs>
<clipPath id="clip0">
<rect width="30.239" height="30.239" fill="white" transform="translate(0.504883)"/>
</clipPath>
</defs>
</svg>
